<svg xmlns="http://www.w3.org/2000/svg" xmlns:xlink="http://www.w3.org/1999/xlink" width="1280" height="550" viewBox="0 0 1280 550">
  <defs>
    <clipPath id="clip-path">
      <rect id="Rectangle_3344" data-name="Rectangle 3344" width="500" height="500" transform="translate(-6770.925 3741.075)" fill="#fff" stroke="#707070" stroke-width="1"/>
    </clipPath>
  </defs>
  <g id="Group_1435" data-name="Group 1435" transform="translate(9319 -5320)">
    <rect id="Rectangle_3343" data-name="Rectangle 3343" width="1280" height="550" transform="translate(-9319 5320)" fill="none"/>
    <g id="Mask_Group_23" data-name="Mask Group 23" transform="translate(-2523.075 1603.925)" clip-path="url(#clip-path)">
      <g id="Group_1436" data-name="Group 1436" transform="translate(-6541.477 3734.624) rotate(45)">
        <rect id="Rectangle_3341" data-name="Rectangle 3341" width="100.03" height="118.217" rx="10" transform="translate(153.374)" fill="#f15a22"/>
        <path id="Rectangle_3342" data-name="Rectangle 3342" d="M0,0H58.2V301.909A9.094,9.094,0,0,1,49.106,311H9.094A9.094,9.094,0,0,1,0,301.909Z" transform="translate(174.289 133.677)" fill="#f15a22"/>
        <path id="Path_1822" data-name="Path 1822" d="M0,0V58.333l123.329-.177s10.256.562,11.694-6.1c1.1-6.933-2.94-13.755-25.13-24.7C64.233,4.823,30.7,2.449,0,0Z" transform="translate(271.591 19.929)" fill="#f15a22"/>
        <path id="Path_1823" data-name="Path 1823" d="M135.187,0V58.333l-123.33-.177S1.6,58.719.163,52.054c-1.1-6.933,2.94-13.755,25.13-24.7C70.953,4.823,104.483,2.449,135.187,0Z" transform="translate(0 19.929)" fill="#f15a22"/>
      </g>
    </g>
    <path id="Path_1822-2" data-name="Path 1822" d="M.562,68.371A87.739,87.739,0,0,1-15.026,67.15a70.033,70.033,0,0,1-11.781-3.114V32.364q5.584,1.4,11.814,2.443a79.694,79.694,0,0,0,13.21,1.047,39.9,39.9,0,0,0,16.578-3.49q7.749-3.49,12.428-12.523T31.9-5.617V-249.186H69.593V-7.444Q69.593,19,61,35.772T36.822,60.456Q21.24,68.371.562,68.371ZM354.384-124.942q0,28.967-7.277,52.525T325.346-31.759A94.124,94.124,0,0,1,289.091-5.584Q267.319,3.49,238.429,3.49q-29.621,0-51.518-9.249a95.3,95.3,0,0,1-36.258-26.175Q136.292-48.86,129.26-72.592t-7.032-52.7q0-38.494,12.616-67.112t38.475-44.62q25.859-16,65.459-16,38.27,0,63.954,15.88T341.4-192.474Q354.384-163.681,354.384-124.942Zm-192.408,0q0,29.867,8.106,51.418t25.142,33.15q17.036,11.6,43.205,11.6,26.622,0,43.361-11.6t24.793-33.15q8.054-21.551,8.054-51.418,0-44.852-18.1-70.261t-57.757-25.409q-26.519,0-43.554,11.473t-25.142,32.9Q161.976-154.809,161.976-124.942ZM548.98,0H408.5V-249.186H548.98v32.206H446.189v71.027H542.7v31.961H446.189V-32.31H548.98Z" transform="translate(-8686 5703)" fill="#f15a22"/>
  </g>
</svg>
